# xmcd
#
# Track frame offsets: 
#        150
#        12487
#        25512
#        37975
#        51122
#        63652
#        77192
#        88992
#        99212
#        110950
#        124692
#        138370
#        151527
#        165032
#        178790
#        192055
#        204235
#        215307
#        230767
#        246142
#        259707
#        271307
#        285045
#        296930
#        308897
#
# Disc length: 4299 seconds
#
# Revision: 0
# Processed by: cddbd v1.5.2PL0 Copyright (c) Steve Scherf et al.
# Submitted via: ExactAudioCopy v0.99pb4
#
DISCID=5310c919
DTITLE=Jimmy McCracklin - 1948-1951
DYEAR=1951
DGENRE=Blues
TTITLE0=Low Down Mood (1948)
TTITLE1=She'S My Baby (1948)
TTITLE2=When I'm Gone
TTITLE3=South Side Mood
TTITLE4=Listen Woman (1948)
TTITLE5=I Can'T Understand Love (1948)
TTITLE6=Josephine (Just Won'T Let Her Go) (08-?-49)
TTITLE7=I'Ll Get A Break Someday (08-?-49)
TTITLE8=Love When It Rains (1949)
TTITLE9=Your Heart Ain'T Right (1949)
TTITLE10=I Think My Time Is Here (Late 1949)
TTITLE11=Deceivin' Blues (Late 1949)
TTITLE12=Beer Drinkin' Woman (Late 1949)
TTITLE13=Up And Down Blues (Late 1949)
TTITLE14=Just Won'T Let Her Go (Spring 1950)
TTITLE15=Rockin' All Day (Spring 1950)
TTITLE16=Gotta Cut Out (Spring 1950)
TTITLE17=You Deceived Me (Spring 1950)
TTITLE18=Bad Health Blues (Spring 1950)
TTITLE19=Hamburger Joint (Spring 1950)
TTITLE20=Looking For A Woman (C. 01-51)
TTITLE21=You Don'T Love Me (C. 01-51)
TTITLE22=I'm Gonna Have My Fun (C. 01-51)
TTITLE23=True Love Blues (C. 01-51)
TTITLE24=Rockin' Man (C. 01-51)
EXTD=
EXTT0=
EXTT1=
EXTT2=
EXTT3=
EXTT4=
EXTT5=
EXTT6=
EXTT7=
EXTT8=
EXTT9=
EXTT10=
EXTT11=
EXTT12=
EXTT13=
EXTT14=
EXTT15=
EXTT16=
EXTT17=
EXTT18=
EXTT19=
EXTT20=
EXTT21=
EXTT22=
EXTT23=
EXTT24=
PLAYORDER=
